<?xml version="1.0" standalone="no"?>
<!DOCTYPE svg PUBLIC "-//W3C//DTD SVG 20010904//EN"
 "http://www.w3.org/TR/2001/REC-SVG-20010904/DTD/svg10.dtd">
<svg version="1.0" xmlns="http://www.w3.org/2000/svg"
 width="192.000000pt" height="192.000000pt" viewBox="0 0 192.000000 192.000000"
 preserveAspectRatio="xMidYMid meet">
<metadata>
Created by potrace 1.11, written by Peter Selinger 2001-2013
</metadata>
<g transform="translate(0.000000,192.000000) scale(0.100000,-0.100000)"
fill="#000000" stroke="none">
<path d="M396 1569 c-39 -31 -57 -72 -63 -148 -11 -133 32 -225 109 -238 40
-6 40 -6 20 -22 -68 -52 -69 -237 -2 -284 l22 -15 -30 -16 c-58 -30 -86 -131
-80 -284 5 -109 25 -181 60 -210 12 -9 138 -12 579 -10 l564 3 0 30 0 30 -442
3 -443 2 -16 25 c-22 34 -16 195 9 243 l18 32 435 0 436 0 -6 35 c-4 20 -2 42
5 53 7 11 9 26 6 35 -5 13 -54 16 -374 19 -409 3 -403 2 -440 71 -23 43 -23
150 0 194 32 61 44 63 375 63 284 0 300 1 317 20 26 29 13 46 -41 54 -26 3
-226 6 -445 6 l-399 0 -15 23 c-24 37 -28 80 -11 120 l15 37 451 0 451 0 -3
32 c-2 28 -8 34 -33 39 l-30 6 29 4 c40 6 57 35 32 55 -17 12 -101 14 -527 14
-498 0 -507 0 -533 -21z"/>
<path d="M847 1093 c-17 -20 -34 -93 -21 -93 5 0 15 9 22 20 12 19 23 20 387
20 l375 0 0 23 c0 47 -3 47 -385 47 -332 0 -363 -1 -378 -17z"/>
</g>
</svg>
